<svg width="142" height="52" viewBox="0 0 142 52" fill="none" xmlns="http://www.w3.org/2000/svg">
<path d="M75.992 34L69.536 26.536V34H66.8V17.32H69.536V24.928L76.016 17.32H79.448L72.2 25.672L79.568 34H75.992ZM94.1075 27.064C94.1075 27.56 94.0755 28.008 94.0115 28.408H83.9075C83.9875 29.464 84.3795 30.312 85.0835 30.952C85.7875 31.592 86.6515 31.912 87.6755 31.912C89.1475 31.912 90.1875 31.296 90.7955 30.064H93.7475C93.3475 31.28 92.6195 32.28 91.5635 33.064C90.5235 33.832 89.2275 34.216 87.6755 34.216C86.4115 34.216 85.2755 33.936 84.2675 33.376C83.2755 32.8 82.4915 32 81.9155 30.976C81.3555 29.936 81.0755 28.736 81.0755 27.376C81.0755 26.016 81.3475 24.824 81.8915 23.8C82.4515 22.76 83.2275 21.96 84.2195 21.4C85.2275 20.84 86.3795 20.56 87.6755 20.56C88.9235 20.56 90.0355 20.832 91.0115 21.376C91.9875 21.92 92.7475 22.688 93.2915 23.68C93.8355 24.656 94.1075 25.784 94.1075 27.064ZM91.2515 26.2C91.2355 25.192 90.8755 24.384 90.1715 23.776C89.4675 23.168 88.5955 22.864 87.5555 22.864C86.6115 22.864 85.8035 23.168 85.1315 23.776C84.4595 24.368 84.0595 25.176 83.9315 26.2H91.2515ZM108.92 27.064C108.92 27.56 108.888 28.008 108.824 28.408H98.72C98.8 29.464 99.192 30.312 99.896 30.952C100.6 31.592 101.464 31.912 102.488 31.912C103.96 31.912 105 31.296 105.608 30.064H108.56C108.16 31.28 107.432 32.28 106.376 33.064C105.336 33.832 104.04 34.216 102.488 34.216C101.224 34.216 100.088 33.936 99.08 33.376C98.088 32.8 97.304 32 96.728 30.976C96.168 29.936 95.888 28.736 95.888 27.376C95.888 26.016 96.16 24.824 96.704 23.8C97.264 22.76 98.04 21.96 99.032 21.4C100.04 20.84 101.192 20.56 102.488 20.56C103.736 20.56 104.848 20.832 105.824 21.376C106.8 21.92 107.56 22.688 108.104 23.68C108.648 24.656 108.92 25.784 108.92 27.064ZM106.064 26.2C106.048 25.192 105.688 24.384 104.984 23.776C104.28 23.168 103.408 22.864 102.368 22.864C101.424 22.864 100.616 23.168 99.944 23.776C99.272 24.368 98.872 25.176 98.744 26.2H106.064ZM114.349 22.72C114.813 22.112 115.445 21.6 116.245 21.184C117.045 20.768 117.949 20.56 118.957 20.56C120.109 20.56 121.157 20.848 122.101 21.424C123.061 21.984 123.813 22.776 124.357 23.8C124.901 24.824 125.173 26 125.173 27.328C125.173 28.656 124.901 29.848 124.357 30.904C123.813 31.944 123.061 32.76 122.101 33.352C121.157 33.928 120.109 34.216 118.957 34.216C117.949 34.216 117.053 34.016 116.269 33.616C115.485 33.2 114.845 32.688 114.349 32.08V40.288H111.613V20.776H114.349V22.72ZM122.389 27.328C122.389 26.416 122.197 25.632 121.812 24.976C121.445 24.304 120.949 23.8 120.325 23.464C119.717 23.112 119.061 22.936 118.357 22.936C117.669 22.936 117.013 23.112 116.389 23.464C115.781 23.816 115.285 24.328 114.901 25C114.533 25.672 114.349 26.464 114.349 27.376C114.349 28.288 114.533 29.088 114.901 29.776C115.285 30.448 115.781 30.96 116.389 31.312C117.013 31.664 117.669 31.84 118.357 31.84C119.061 31.84 119.717 31.664 120.325 31.312C120.949 30.944 121.445 30.416 121.812 29.728C122.197 29.04 122.389 28.24 122.389 27.328ZM130.614 17.32V34H127.878V17.32H130.614ZM137.398 23.008V30.328C137.398 30.824 137.51 31.184 137.734 31.408C137.974 31.616 138.374 31.72 138.934 31.72H140.614V34H138.454C137.222 34 136.278 33.712 135.622 33.136C134.966 32.56 134.638 31.624 134.638 30.328V23.008H133.078V20.776H134.638V17.488H137.398V20.776H140.614V23.008H137.398Z" fill="#FA7275"/>
<rect opacity="0.2" width="48" height="48" rx="24" fill="#FA7275"/>
<rect x="21" y="20" width="32" height="32" rx="16" fill="#FA7275"/>
</svg>
