<svg width="222" height="82" viewBox="0 0 222 82" fill="none" xmlns="http://www.w3.org/2000/svg">
<path d="M118.472 53.473L108.407 41.8366V53.473H104.142V27.4688H108.407V39.3297L118.509 27.4688H123.86L112.56 40.4896L124.047 53.473H118.472ZM146.714 42.6597C146.714 43.433 146.664 44.1314 146.565 44.755H130.812C130.937 46.4014 131.548 47.7234 132.646 48.7212C133.743 49.7189 135.09 50.2178 136.687 50.2178C138.982 50.2178 140.603 49.2575 141.551 47.3368H146.153C145.529 49.2325 144.394 50.7915 142.748 52.0138C141.127 53.2111 139.106 53.8098 136.687 53.8098C134.716 53.8098 132.945 53.3732 131.374 52.5002C129.827 51.6022 128.605 50.355 127.707 48.7586C126.834 47.1372 126.397 45.2664 126.397 43.1462C126.397 41.0259 126.821 39.1676 127.669 37.5711C128.542 35.9498 129.752 34.7026 131.299 33.8295C132.87 32.9565 134.666 32.52 136.687 32.52C138.632 32.52 140.366 32.944 141.887 33.7921C143.409 34.6402 144.594 35.8375 145.442 37.3841C146.29 38.9057 146.714 40.6642 146.714 42.6597ZM142.262 41.3128C142.237 39.7413 141.675 38.4816 140.578 37.5337C139.48 36.5859 138.121 36.1119 136.5 36.1119C135.028 36.1119 133.768 36.5859 132.721 37.5337C131.673 38.4567 131.049 39.7163 130.85 41.3128H142.262ZM169.807 42.6597C169.807 43.433 169.757 44.1314 169.657 44.755H153.905C154.03 46.4014 154.641 47.7234 155.738 48.7212C156.836 49.7189 158.183 50.2178 159.779 50.2178C162.074 50.2178 163.696 49.2575 164.644 47.3368H169.246C168.622 49.2325 167.487 50.7915 165.841 52.0138C164.219 53.2111 162.199 53.8098 159.779 53.8098C157.809 53.8098 156.038 53.3732 154.466 52.5002C152.92 51.6022 151.698 50.355 150.8 48.7586C149.927 47.1372 149.49 45.2664 149.49 43.1462C149.49 41.0259 149.914 39.1676 150.762 37.5711C151.635 35.9498 152.845 34.7026 154.392 33.8295C155.963 32.9565 157.759 32.52 159.779 32.52C161.725 32.52 163.459 32.944 164.98 33.7921C166.502 34.6402 167.687 35.8375 168.535 37.3841C169.383 38.9057 169.807 40.6642 169.807 42.6597ZM165.354 41.3128C165.329 39.7413 164.768 38.4816 163.671 37.5337C162.573 36.5859 161.214 36.1119 159.592 36.1119C158.121 36.1119 156.861 36.5859 155.813 37.5337C154.766 38.4567 154.142 39.7163 153.943 41.3128H165.354ZM178.27 35.8874C178.993 34.9395 179.979 34.1413 181.226 33.4928C182.473 32.8442 183.882 32.52 185.454 32.52C187.25 32.52 188.884 32.969 190.355 33.8669C191.852 34.74 193.024 35.9747 193.873 37.5711C194.721 39.1676 195.145 41.001 195.145 43.0713C195.145 45.1417 194.721 47 193.873 48.6463C193.024 50.2677 191.852 51.5398 190.355 52.4628C188.884 53.3608 187.25 53.8098 185.454 53.8098C183.882 53.8098 182.486 53.498 181.263 52.8743C180.041 52.2258 179.043 51.4276 178.27 50.4797V63.276H174.005V32.8567H178.27V35.8874ZM190.804 43.0713C190.804 41.6495 190.505 40.4272 189.906 39.4045C189.333 38.3569 188.559 37.5711 187.587 37.0473C186.639 36.4985 185.616 36.2242 184.519 36.2242C183.446 36.2242 182.423 36.4985 181.45 37.0473C180.503 37.5961 179.729 38.3943 179.131 39.442C178.557 40.4896 178.27 41.7243 178.27 43.1462C178.27 44.568 178.557 45.8152 179.131 46.8878C179.729 47.9354 180.503 48.7336 181.45 49.2824C182.423 49.8312 183.446 50.1056 184.519 50.1056C185.616 50.1056 186.639 49.8312 187.587 49.2824C188.559 48.7087 189.333 47.8855 189.906 46.8129C190.505 45.7403 190.804 44.4931 190.804 43.0713ZM203.628 27.4688V53.473H199.363V27.4688H203.628ZM214.205 36.3364V47.7483C214.205 48.5216 214.379 49.0828 214.729 49.4321C215.103 49.7563 215.726 49.9185 216.599 49.9185H219.218V53.473H215.851C213.93 53.473 212.459 53.024 211.436 52.126C210.413 51.228 209.902 49.7688 209.902 47.7483V36.3364H207.47V32.8567H209.902V27.7307H214.205V32.8567H219.218V36.3364H214.205Z" fill="white"/>
<rect opacity="0.2" width="74.8323" height="74.8323" rx="37.4161" fill="white"/>
<rect x="32.7391" y="31.1801" width="49.8882" height="49.8882" rx="24.9441" fill="white"/>
</svg>
